<svg width="274" height="160" viewBox="0 0 274 160" fill="none" xmlns="http://www.w3.org/2000/svg">
<circle cx="255.755" cy="30.7549" r="79" transform="rotate(-165 255.755 30.7549)" fill="url(#paint0_linear)"/>
<g filter="url(#filter0_d)">
<path d="M397.251 9.43661C570.529 -31.3816 436.286 -92.6118 430.23 -92.2147C415.071 -96.7562 377.974 -102.674 350.857 -90.0156C316.961 -74.1922 296.414 -62.8509 228.472 -71.5457C160.529 -80.2404 85.0178 -39.4459 47.0093 8.9585C9.00068 57.3629 69.6825 67.9615 168.47 32.9296C267.257 -2.10237 223.973 50.2548 397.251 9.43661Z" fill="url(#paint1_linear)"/>
</g>
<g filter="url(#filter1_d)">
<path d="M217.575 128.385C194.698 113.358 223.654 89.3854 239.527 79.8587C246.549 75.6437 253.546 81.804 239.527 105.885C235.294 113.154 238.658 142.233 217.575 128.385Z" fill="url(#paint2_linear)"/>
</g>
<circle cx="150" cy="50" r="4" fill="url(#paint3_linear)"/>
<circle cx="183.5" cy="91.5" r="2.5" fill="url(#paint4_linear)"/>
<defs>
<filter id="filter0_d" x="-6.10352e-05" y="-148" width="512.88" height="259.495" filterUnits="userSpaceOnUse" color-interpolation-filters="sRGB">
<feFlood flood-opacity="0" result="BackgroundImageFix"/>
<feColorMatrix in="SourceAlpha" type="matrix" values="0 0 0 0 0 0 0 0 0 0 0 0 0 0 0 0 0 0 127 0"/>
<feOffset dy="5"/>
<feGaussianBlur stdDeviation="10"/>
<feColorMatrix type="matrix" values="0 0 0 0 0.243137 0 0 0 0 0.54902 0 0 0 0 0.92549 0 0 0 0.15 0"/>
<feBlend mode="normal" in2="BackgroundImageFix" result="effect1_dropShadow"/>
<feBlend mode="normal" in="SourceGraphic" in2="effect1_dropShadow" result="shape"/>
</filter>
<filter id="filter1_d" x="186" y="58" width="83.0105" height="101.471" filterUnits="userSpaceOnUse" color-interpolation-filters="sRGB">
<feFlood flood-opacity="0" result="BackgroundImageFix"/>
<feColorMatrix in="SourceAlpha" type="matrix" values="0 0 0 0 0 0 0 0 0 0 0 0 0 0 0 0 0 0 127 0"/>
<feOffset dy="5"/>
<feGaussianBlur stdDeviation="10"/>
<feColorMatrix type="matrix" values="0 0 0 0 0.52549 0 0 0 0 0.992157 0 0 0 0 0.909804 0 0 0 0.15 0"/>
<feBlend mode="normal" in2="BackgroundImageFix" result="effect1_dropShadow"/>
<feBlend mode="normal" in="SourceGraphic" in2="effect1_dropShadow" result="shape"/>
</filter>
<linearGradient id="paint0_linear" x1="176.755" y1="30.7549" x2="334.755" y2="30.7549" gradientUnits="userSpaceOnUse">
<stop stop-color="#ACB6E5"/>
<stop offset="1" stop-color="#86FDE8"/>
</linearGradient>
<linearGradient id="paint1_linear" x1="105.696" y1="-23.2066" x2="334.471" y2="33.7327" gradientUnits="userSpaceOnUse">
<stop stop-color="#3E8CEC"/>
<stop offset="1" stop-color="#E182E8"/>
</linearGradient>
<linearGradient id="paint2_linear" x1="228.405" y1="88.7076" x2="235.984" y2="124.621" gradientUnits="userSpaceOnUse">
<stop stop-color="#00F5A0"/>
<stop offset="1" stop-color="#00D9F5"/>
</linearGradient>
<linearGradient id="paint3_linear" x1="146" y1="50" x2="154" y2="50" gradientUnits="userSpaceOnUse">
<stop stop-color="#FFE259"/>
<stop offset="1" stop-color="#FFA751"/>
</linearGradient>
<linearGradient id="paint4_linear" x1="181" y1="91.5" x2="186" y2="91.5" gradientUnits="userSpaceOnUse">
<stop stop-color="#EC008C"/>
<stop offset="1" stop-color="#FC6767"/>
</linearGradient>
</defs>
</svg>
